<svg width="21" height="19" viewBox="0 0 21 19" fill="none" xmlns="http://www.w3.org/2000/svg">
<path d="M12.8769 18.2135C13.4785 18.2135 14.0554 17.9746 14.4808 17.5492C14.9061 17.1238 15.1451 16.5469 15.1451 15.9454C15.1451 15.3438 14.9061 14.7669 14.4808 14.3416C14.0554 13.9162 13.4785 13.6772 12.8769 13.6772C12.2754 13.6772 11.6985 13.9162 11.2731 14.3416C10.8478 14.7669 10.6088 15.3438 10.6088 15.9454C10.6088 16.5469 10.8478 17.1238 11.2731 17.5492C11.6985 17.9746 12.2754 18.2135 12.8769 18.2135ZM4.93843 18.2135C5.53998 18.2135 6.11689 17.9746 6.54225 17.5492C6.96761 17.1238 7.20657 16.5469 7.20657 15.9454C7.20657 15.3438 6.96761 14.7669 6.54225 14.3416C6.11689 13.9162 5.53998 13.6772 4.93843 13.6772C4.33688 13.6772 3.75997 13.9162 3.33461 14.3416C2.90925 14.7669 2.67028 15.3438 2.67028 15.9454C2.67028 16.5469 2.90925 17.1238 3.33461 17.5492C3.75997 17.9746 4.33688 18.2135 4.93843 18.2135ZM19.7245 2.24918C20.0076 2.24005 20.276 2.12117 20.4731 1.91767C20.6701 1.71418 20.7803 1.44203 20.7803 1.15877C20.7803 0.875515 20.6701 0.603363 20.4731 0.399868C20.276 0.196374 20.0076 0.0774907 19.7245 0.0683594H18.4191C17.3962 0.0683594 16.5116 0.778289 16.2894 1.77627L14.8684 8.17471C14.6461 9.17269 13.7615 9.88262 12.7386 9.88262H4.21943L2.5841 3.33902H13.182C13.4624 3.32623 13.7272 3.20581 13.9211 3.00283C14.115 2.79985 14.2232 2.52992 14.2232 2.24918C14.2232 1.96844 14.115 1.69851 13.9211 1.49553C13.7272 1.29255 13.4624 1.17213 13.182 1.15934H2.5841C2.25257 1.15924 1.92538 1.23473 1.62741 1.38007C1.32943 1.5254 1.06852 1.73676 0.864498 1.99808C0.660475 2.25939 0.518715 2.56379 0.449995 2.88811C0.381275 3.21244 0.387405 3.54817 0.467916 3.86977L2.10325 10.4111C2.22114 10.8831 2.49347 11.3021 2.87692 11.6015C3.26037 11.9009 3.73293 12.0635 4.21943 12.0634H12.7386C13.7311 12.0636 14.694 11.7252 15.4683 11.1041C16.2425 10.4831 16.7818 9.61654 16.997 8.64762L18.4191 2.24918H19.7245Z" fill="white"/>
</svg>
