<svg width="25" height="25" viewBox="0 0 25 25" fill="none" xmlns="http://www.w3.org/2000/svg">
<path d="M14.5824 20.8334C15.135 20.8334 15.6649 20.6139 16.0556 20.2232C16.4463 19.8325 16.6658 19.3026 16.6658 18.7501C16.6658 18.1975 16.4463 17.6676 16.0556 17.2769C15.6649 16.8862 15.135 16.6667 14.5824 16.6667C14.0299 16.6667 13.5 16.8862 13.1093 17.2769C12.7186 17.6676 12.4991 18.1975 12.4991 18.7501C12.4991 19.3026 12.7186 19.8325 13.1093 20.2232C13.5 20.6139 14.0299 20.8334 14.5824 20.8334ZM7.29077 20.8334C7.8433 20.8334 8.37321 20.6139 8.76391 20.2232C9.15461 19.8325 9.3741 19.3026 9.3741 18.7501C9.3741 18.1975 9.15461 17.6676 8.76391 17.2769C8.37321 16.8862 7.8433 16.6667 7.29077 16.6667C6.73823 16.6667 6.20833 16.8862 5.81763 17.2769C5.42693 17.6676 5.20743 18.1975 5.20743 18.7501C5.20743 19.3026 5.42693 19.8325 5.81763 20.2232C6.20833 20.6139 6.73823 20.8334 7.29077 20.8334ZM20.872 6.16987C21.1321 6.16149 21.3786 6.05229 21.5596 5.86538C21.7406 5.67846 21.8418 5.42849 21.8418 5.16831C21.8418 4.90814 21.7406 4.65816 21.5596 4.47125C21.3786 4.28433 21.1321 4.17514 20.872 4.16675H19.6731C18.7335 4.16675 17.921 4.81883 17.7168 5.7355L16.4116 11.6126C16.2074 12.5292 15.3949 13.1813 14.4554 13.1813H6.63035L5.12827 7.17091H14.8626C15.1202 7.15916 15.3634 7.04856 15.5415 6.86211C15.7196 6.67567 15.819 6.42773 15.819 6.16987C15.819 5.91201 15.7196 5.66408 15.5415 5.47763C15.3634 5.29119 15.1202 5.18059 14.8626 5.16883H5.12827C4.82375 5.16874 4.52323 5.23808 4.24953 5.37157C3.97584 5.50507 3.73618 5.69921 3.54879 5.93923C3.36139 6.17925 3.23118 6.45884 3.16806 6.75674C3.10494 7.05464 3.11057 7.36302 3.18452 7.65841L4.6866 13.6667C4.79489 14.1003 5.04503 14.4852 5.39724 14.7602C5.74944 15.0352 6.18349 15.1845 6.63035 15.1845H14.4554C15.367 15.1846 16.2515 14.8738 16.9626 14.3033C17.6738 13.7329 18.1691 12.9369 18.3668 12.047L19.6731 6.16987H20.872Z" fill="black"/>
</svg>
