<svg width="19" height="19" viewBox="0 0 19 19" fill="none" xmlns="http://www.w3.org/2000/svg">
<path d="M16.7071 16.0087L16.7071 16.0087C16.7899 16.0915 16.8883 16.1572 16.9965 16.2021C17.1048 16.2469 17.2208 16.27 17.3379 16.27C17.4551 16.27 17.5711 16.2469 17.6793 16.2021C17.7875 16.1572 17.8859 16.0915 17.9687 16.0087C18.0516 15.9258 18.1173 15.8275 18.1621 15.7192C18.2069 15.611 18.23 15.495 18.23 15.3779C18.23 15.2607 18.2069 15.1447 18.1621 15.0365C18.1173 14.9282 18.0516 14.8299 17.9687 14.747L17.9687 14.747L14.637 11.4161C15.6023 10.1351 16.0549 8.53858 15.904 6.93955C15.7503 5.31066 14.9818 3.80151 13.7548 2.71913C12.5279 1.63674 10.9347 1.06244 9.29935 1.11304C7.664 1.16365 6.10936 1.83536 4.95169 2.99153C3.79301 4.1485 3.1191 5.70376 3.06729 7.34035C3.01547 8.97695 3.58966 10.5717 4.67283 11.7997C5.756 13.0276 7.26665 13.7963 8.89691 13.9492C10.4975 14.0992 12.095 13.6446 13.3759 12.6767L16.7071 16.0087ZM12.7897 4.25378C13.2273 4.68428 13.5753 5.19715 13.8136 5.76281C14.052 6.32848 14.176 6.93574 14.1785 7.54956C14.181 8.16339 14.062 8.77164 13.8282 9.33923C13.5945 9.90681 13.2507 10.4225 12.8166 10.8565C12.3826 11.2906 11.8669 11.6344 11.2993 11.8682C10.7317 12.1019 10.1235 12.221 9.50962 12.2185C8.8958 12.216 8.28854 12.092 7.72287 11.8536C7.15721 11.6152 6.64434 11.2672 6.21384 10.8297C5.35353 9.95522 4.8736 8.77625 4.8786 7.54956C4.88359 6.32288 5.37311 5.14786 6.24051 4.28045C7.10792 3.41304 8.28294 2.92353 9.50962 2.91854C10.7363 2.91354 11.9153 3.39347 12.7897 4.25378Z" fill="black" stroke="black" stroke-width="0.2"/>
</svg>
