<svg width="20" height="20" viewBox="0 0 20 20" fill="none" xmlns="http://www.w3.org/2000/svg">
<path d="M17.1061 2.27661H2.89521C2.55345 2.27661 2.27734 2.55272 2.27734 2.89447V17.1053C2.27734 17.4471 2.55345 17.7232 2.89521 17.7232H17.1061C17.4478 17.7232 17.7239 17.4471 17.7239 17.1053V2.89447C17.7239 2.55272 17.4478 2.27661 17.1061 2.27661ZM15.322 6.78508H14.0882C13.1208 6.78508 12.9336 7.24462 12.9336 7.92041V9.40907H15.2428L14.9416 11.7396H12.9336V17.7232H10.5258V11.7415H8.51197V9.40907H10.5258V7.69064C10.5258 5.6961 11.7442 4.60905 13.5244 4.60905C14.3778 4.60905 15.1096 4.67276 15.3239 4.70173V6.78508H15.322Z" fill="white"/>
</svg>
